<svg width="1200" height="630" viewBox="0 0 1200 630" xmlns="http://www.w3.org/2000/svg">
  <defs>
    <linearGradient id="bg" x1="0" y1="0" x2="1" y2="1">
      <stop offset="0%" stop-color="#0a0a1a"/>
      <stop offset="100%" stop-color="#1a0b2e"/>
    </linearGradient>
    <linearGradient id="title" x1="0" y1="0" x2="1" y2="0">
      <stop offset="0%" stop-color="#38bdf8"/>
      <stop offset="45%" stop-color="#a855f7"/>
      <stop offset="100%" stop-color="#ec4899"/>
    </linearGradient>
    <radialGradient id="orb1" cx="50%" cy="50%" r="50%">
      <stop offset="0%" stop-color="#7c3aed" stop-opacity="0.55"/>
      <stop offset="100%" stop-color="#7c3aed" stop-opacity="0"/>
    </radialGradient>
    <radialGradient id="orb2" cx="50%" cy="50%" r="50%">
      <stop offset="0%" stop-color="#ec4899" stop-opacity="0.4"/>
      <stop offset="100%" stop-color="#ec4899" stop-opacity="0"/>
    </radialGradient>
  </defs>
  <rect width="1200" height="630" fill="url(#bg)"/>
  <circle cx="120" cy="80" r="360" fill="url(#orb1)"/>
  <circle cx="1080" cy="560" r="340" fill="url(#orb2)"/>
  <g opacity="0.25" stroke="#a855f7" stroke-width="1">
    <line x1="80" y1="500" x2="260" y2="380"/>
    <line x1="260" y1="380" x2="420" y2="470"/>
    <line x1="900" y1="120" x2="1080" y2="220"/>
    <line x1="1080" y1="220" x2="1000" y2="340"/>
  </g>
  <circle cx="80" cy="500" r="4" fill="#38bdf8"/>
  <circle cx="260" cy="380" r="5" fill="#ec4899"/>
  <circle cx="420" cy="470" r="3" fill="#a855f7"/>
  <circle cx="900" cy="120" r="4" fill="#a855f7"/>
  <circle cx="1080" cy="220" r="5" fill="#38bdf8"/>
  <circle cx="1000" cy="340" r="3" fill="#ec4899"/>

  <text x="600" y="270" text-anchor="middle" font-family="Arial, sans-serif" font-weight="900" font-size="88" fill="url(#title)" letter-spacing="2">IA BRUTAL</text>
  <text x="600" y="340" text-anchor="middle" font-family="Arial, sans-serif" font-weight="500" font-size="30" fill="#c9c6e8">Tutoriales, Prompts y Automatización con IA</text>
  <text x="600" y="390" text-anchor="middle" font-family="Arial, sans-serif" font-weight="400" font-size="24" fill="#8a86ad">100% gratuito · Sin afiliados · Sin humo</text>

  <g transform="translate(500,440)">
    <rect x="0" y="0" width="200" height="56" rx="28" fill="#7c3aed" opacity="0.18" stroke="#a855f7" stroke-width="1.5"/>
    <text x="100" y="36" text-anchor="middle" font-family="Arial, sans-serif" font-weight="700" font-size="20" fill="#e9e7fb">gti20v.github.io</text>
  </g>
</svg>
